<svg xmlns="http://www.w3.org/2000/svg" viewBox="0 0 760 560" role="img" aria-label="Campus life illustration">
  <defs>
    <linearGradient id="bg" x1="0" x2="1" y1="0" y2="1"><stop stop-color="#263657"/><stop offset="1" stop-color="#0f172a"/></linearGradient>
    <linearGradient id="card" x1="0" x2="1" y1="0" y2="1"><stop stop-color="#2454ff"/><stop offset="1" stop-color="#00a884"/></linearGradient>
  </defs>
  <rect width="760" height="560" rx="36" fill="url(#bg)"/>
  <circle cx="100" cy="92" r="60" fill="#ffffff" opacity=".08"/>
  <circle cx="650" cy="450" r="105" fill="#00a884" opacity=".12"/>
  <rect x="86" y="92" width="588" height="340" rx="26" fill="#ffffff" opacity=".96"/>
  <rect x="124" y="132" width="222" height="126" rx="18" fill="#e9efff"/>
  <rect x="384" y="132" width="252" height="36" rx="18" fill="#d7e2ff"/>
  <rect x="384" y="192" width="194" height="24" rx="12" fill="#d7e2ff"/>
  <rect x="384" y="236" width="230" height="24" rx="12" fill="#d7e2ff"/>
  <rect x="124" y="300" width="156" height="92" rx="18" fill="url(#card)"/>
  <rect x="302" y="300" width="156" height="92" rx="18" fill="#ff8a1f"/>
  <rect x="480" y="300" width="156" height="92" rx="18" fill="#122033"/>
  <circle cx="202" cy="206" r="34" fill="#ffbd8a"/>
  <path d="M144 258c10-48 30-66 58-66s48 18 58 66H144Z" fill="#2454ff"/>
  <circle cx="286" cy="210" r="30" fill="#f2aa78"/>
  <path d="M232 258c10-44 29-60 54-60s44 16 54 60H232Z" fill="#00a884"/>
  <path d="M128 460h504" stroke="#ffffff" stroke-opacity=".28" stroke-width="18" stroke-linecap="round"/>
</svg>
