<svg xmlns="http://www.w3.org/2000/svg" viewBox="0 0 900 720" role="img" aria-label="Campus illustration">
  <defs>
    <linearGradient id="bg" x1="0" x2="1" y1="0" y2="1">
      <stop stop-color="#eaf0ff"/>
      <stop offset="1" stop-color="#d6fff4"/>
    </linearGradient>
    <linearGradient id="glass" x1="0" x2="1" y1="0" y2="1">
      <stop stop-color="#2454ff"/>
      <stop offset="1" stop-color="#00a884"/>
    </linearGradient>
    <filter id="shadow" x="-20%" y="-20%" width="140%" height="140%">
      <feDropShadow dx="0" dy="22" stdDeviation="28" flood-color="#1f3153" flood-opacity=".18"/>
    </filter>
  </defs>
  <rect width="900" height="720" rx="54" fill="url(#bg)"/>
  <circle cx="140" cy="130" r="86" fill="#fff" opacity=".58"/>
  <circle cx="760" cy="120" r="124" fill="#2454ff" opacity=".10"/>
  <circle cx="740" cy="560" r="150" fill="#00a884" opacity=".12"/>
  <g filter="url(#shadow)">
    <path d="M176 322 454 158l276 164v276H176V322Z" fill="#fff"/>
    <path d="M454 158 730 322H176l278-164Z" fill="#122033"/>
    <path d="M221 352h466v206H221z" fill="#f8fbff"/>
    <path d="M260 386h92v72h-92zM404 386h92v72h-92zM548 386h92v72h-92z" fill="#dfe8ff"/>
    <path d="M380 488h148v110H380z" fill="url(#glass)"/>
    <path d="M188 598h532v38H188z" fill="#122033"/>
    <path d="M290 276h328v46H290z" fill="#ff8a1f"/>
  </g>
  <g>
    <circle cx="274" cy="588" r="38" fill="#ffbd8a"/>
    <path d="M212 697c10-62 34-86 62-86s54 24 64 86H212Z" fill="#2454ff"/>
    <path d="M241 575c6-26 58-28 66 0-18 12-44 12-66 0Z" fill="#122033"/>
    <circle cx="622" cy="586" r="40" fill="#ffbd8a"/>
    <path d="M554 697c12-64 39-88 70-88s56 24 68 88H554Z" fill="#00a884"/>
    <path d="M584 568c16-26 76-18 80 20-30-8-52-4-80-20Z" fill="#122033"/>
    <circle cx="448" cy="604" r="42" fill="#f2aa78"/>
    <path d="M374 704c14-66 42-90 76-90s64 24 78 90H374Z" fill="#ff8a1f"/>
    <path d="M405 588c13-34 78-28 88 8-25-7-54 0-88-8Z" fill="#122033"/>
  </g>
</svg>
